<?xml version="1.0" encoding="utf-8"?>
<!-- Generator: Adobe Illustrator 23.1.0, SVG Export Plug-In . SVG Version: 6.00 Build 0)  -->
<svg version="1.1" id="Layer_1" xmlns="http://www.w3.org/2000/svg" xmlns:xlink="http://www.w3.org/1999/xlink" x="0px" y="0px"
	 width="12.3px" height="14px" viewBox="0 0 12.3 14" style="enable-background:new 0 0 12.3 14;" xml:space="preserve">
<style type="text/css">
	.st0{fill:#ABE1FA;}
</style>
<g>
	<g transform="translate(0.000000,512.000000) scale(0.100000,-0.100000)">
		<path class="st0" d="M59.8,5119.9c-0.9-0.4-1.9-1.3-2.4-2.1c-0.4-0.8-0.5-2.1-0.6-10.5l-0.1-9.6l-6.5,4.5
			c-3.6,2.5-6.9,4.7-7.3,4.9c-1.6,0.8-4.1,0.2-5.3-1.3c-1.2-1.6-1-4.2,0.3-5.5c0.4-0.4,4.8-3.5,9.7-6.9l9-6.2l0-14.2
			c0-7.8-0.1-14.3-0.2-14.3c-0.1-0.1-24.2,13.5-24.6,13.9c-0.1,0.1-0.5,5.1-1,11c-0.5,5.9-1,11.3-1.2,11.8c-0.6,2.2-3.1,3.6-5.2,3
			c-1.4-0.4-2.9-1.9-3.1-3.1c-0.1-0.5,0.1-4.6,0.5-9.1c0.4-4.5,0.7-8.2,0.6-8.3c0,0-3.8,2.1-8.3,4.6c-7,4-8.4,4.7-9.6,4.8
			c-2.6,0.2-4.5-1.5-4.5-4.1c0-1.4,0.4-2.5,1.3-3.3c0.3-0.2,4-2.5,8.3-5c4.3-2.5,7.9-4.7,8-4.8c0.1-0.1-3.1-1.7-7.1-3.6
			c-7.9-3.7-9.2-4.6-9.6-6.4c-0.5-2.4,1.1-4.8,3.3-5.3c1.5-0.3,2.2,0,13.4,5.4l9.3,4.4l12.2-7.2c6.7-4,12.2-7.3,12-7.4
			c-0.1-0.1-5.6-3.4-12.2-7.3l-12-7l-9.3,4.4c-11.8,5.6-12.1,5.7-13.6,5.2c-3.3-1-4.3-5-1.8-7.3c0.5-0.5,4.1-2.3,8.2-4.2
			c4-1.9,7.2-3.5,7.1-3.6c-0.1-0.1-3.7-2.3-8-4.8c-4.3-2.5-8.1-4.9-8.6-5.3c-1.5-1.4-1.6-4-0.3-5.6c1-1.1,2-1.6,3.5-1.6
			c1.1,0,2.1,0.5,9.7,4.8c4.6,2.6,8.4,4.8,8.4,4.7c0.1,0-0.2-3.9-0.6-8.5c-0.7-8.2-0.7-8.5-0.2-9.5c0.8-1.9,2.9-2.9,5-2.4
			c1.3,0.4,2.9,2,3.1,3.3c0.1,0.5,0.5,5.7,1,11.6c0.5,5.9,0.9,10.8,1,10.9c0.3,0.4,24.5,14,24.5,13.9c0.2-0.2,0.2-28.2-0.1-28.5
			c-0.1-0.1-4.3-3.1-9.3-6.5c-5.6-3.9-9.2-6.6-9.6-7.1c-0.4-0.7-0.6-1.3-0.6-2.3c0-2.6,2-4.5,4.7-4.2c1.1,0.1,2.1,0.7,8.2,4.9l7,4.8
			l0.1-9.9c0.2-11,0.2-11,2-12.3c0.7-0.5,1.3-0.6,2.5-0.6c1.7,0,2.6,0.5,3.6,1.9c0.5,0.7,0.6,1.1,0.7,10.7c0,5.5,0.2,10,0.3,10
			c0.1,0,3.1-2,6.6-4.4c3.5-2.4,6.7-4.6,7.1-4.8c1.6-0.8,4.1-0.3,5.1,1.1c1.3,1.6,1.3,4.1,0,5.6c-0.3,0.4-4.7,3.5-9.7,7l-9.1,6.3
			v14.2c0,7.8,0.1,14.2,0.2,14.2c0.2,0,23.6-13.3,24.3-13.8c0.4-0.3,0.6-2.2,1.4-11.6c0.7-8.4,1-11.5,1.3-12.1c1-1.8,3.1-2.8,5-2.2
			c1.4,0.4,2.8,1.9,3,3.1c0.1,0.5-0.1,4.6-0.5,9.1c-0.4,4.5-0.7,8.2-0.6,8.2c0,0,3.7-2.1,8.2-4.6c8.2-4.7,8.2-4.7,9.9-4.7
			c1.9,0,2.8,0.5,3.7,2c0.6,1.1,0.7,3,0.1,4.1c-0.6,1.2-1.2,1.6-9.8,6.6c-4.2,2.4-7.6,4.5-7.5,4.5c0.1,0.1,3.4,1.6,7.5,3.6
			c4.1,1.9,7.7,3.8,8.1,4.2c1.5,1.4,1.7,3.9,0.4,5.6c-0.8,1.1-2.8,1.9-4,1.7c-0.4-0.1-5.4-2.3-11-5c-5.6-2.6-10.2-4.8-10.2-4.8
			c-0.3,0-24.3,14.2-24.3,14.4c0,0.2,24,14.4,24.4,14.4c0.1,0,4.8-2.2,10.4-4.8c11.1-5.2,11.6-5.4,13.5-4.3c1.6,0.9,2.2,2.2,2.1,4
			c-0.2,2.6-0.4,2.7-9,6.8c-4.2,2-7.7,3.7-7.7,3.8c0,0.1,3.5,2.2,7.8,4.7c4.2,2.5,8.1,4.9,8.6,5.3c2.8,2.5,0.9,7.3-2.9,7.3
			c-1.3,0-1,0.2-10.4-5.1c-4.1-2.4-7.6-4.2-7.6-4.1c-0.1,0.1,0.1,3.4,0.4,7.4c0.8,9.3,0.8,9.8,0,11c-0.7,1.1-2.4,2-3.6,2.1
			c-1.7,0-3.8-1.6-4.2-3.1c-0.1-0.3-0.6-5.6-1.1-11.7c-0.8-9.7-1-11.1-1.4-11.4c-0.7-0.5-24.1-13.8-24.3-13.8
			c-0.1,0-0.2,6.4-0.2,14.3v14.3l9.4,6.5c5.5,3.8,9.6,6.8,9.8,7.3c0.7,1.2,0.8,2.5,0.4,3.8c-0.8,2.1-2.7,3.1-4.9,2.7
			c-0.5-0.1-3.6-2.1-7.9-5l-7-4.8l-0.1,9.9c-0.1,9.4-0.2,9.9-0.7,10.6c-0.9,1.3-1.9,1.8-3.3,1.9C60.8,5120.1,60,5120,59.8,5119.9z"
			/>
	</g>
</g>
</svg>
