<?xml version="1.0" encoding="utf-8"?>
<!-- Generator: Adobe Illustrator 23.1.0, SVG Export Plug-In . SVG Version: 6.00 Build 0)  -->
<svg version="1.1" id="Layer_1" xmlns="http://www.w3.org/2000/svg" xmlns:xlink="http://www.w3.org/1999/xlink" x="0px" y="0px"
	 width="21px" height="24px" viewBox="0 0 21 24" style="enable-background:new 0 0 21 24;" xml:space="preserve">
<style type="text/css">
	.st0{fill:#ABE1FA;}
</style>
<g>
	<g transform="translate(0.000000,512.000000) scale(0.100000,-0.100000)">
		<path class="st0" d="M102.6,5119.9c-1.6-0.7-3.3-2.2-4.1-3.6c-0.7-1.3-0.8-3.5-1-18.1l-0.2-16.5l-11.2,7.7
			c-6.1,4.3-11.8,8.1-12.5,8.5c-2.8,1.5-7,0.4-9-2.2c-2.1-2.7-1.8-7.2,0.6-9.5c0.7-0.7,8.2-6,16.7-11.9l15.4-10.7l0-24.4
			c0-13.4-0.2-24.5-0.3-24.6c-0.1-0.2-41.5,23.1-42.1,23.8c-0.1,0.2-0.9,8.7-1.7,18.9c-0.8,10.2-1.7,19.3-2,20.3
			c-1,3.8-5.3,6.2-9,5.1c-2.4-0.7-4.9-3.2-5.3-5.3c-0.2-0.8,0.2-7.8,0.9-15.6c0.6-7.7,1.1-14.1,1.1-14.2c0,0-6.4,3.5-14.2,7.9
			c-12,6.9-14.4,8-16.4,8.2c-4.4,0.4-7.7-2.6-7.7-7c0-2.4,0.8-4.3,2.2-5.6c0.5-0.4,6.9-4.3,14.3-8.6c7.4-4.3,13.5-8,13.8-8.2
			c0.2-0.2-5.3-3-12.2-6.2c-13.6-6.3-15.8-7.8-16.4-10.9c-0.8-4.2,1.8-8.3,5.6-9.1c2.5-0.5,3.8,0,23.1,9.2l16,7.6l21-12.3
			c11.5-6.8,20.8-12.5,20.6-12.7c-0.2-0.2-9.7-5.8-21-12.4l-20.6-12.1l-16,7.6c-20.2,9.6-20.7,9.8-23.3,9c-5.7-1.7-7.4-8.5-3.1-12.5
			c0.9-0.8,7.1-4,14-7.2c6.9-3.2,12.3-6,12.2-6.2c-0.2-0.2-6.4-3.9-13.8-8.2c-7.4-4.3-13.9-8.4-14.7-9.1c-2.5-2.3-2.7-6.9-0.5-9.5
			c1.6-1.9,3.5-2.8,6-2.8c1.9,0,3.7,0.8,16.6,8.2c7.9,4.5,14.4,8.2,14.5,8.1c0.1,0-0.4-6.6-1.1-14.6c-1.2-14.1-1.2-14.5-0.3-16.3
			c1.5-3.3,5-5,8.6-4.1c2.3,0.6,5,3.4,5.4,5.6c0.1,0.8,0.9,9.8,1.7,19.9c0.8,10.1,1.6,18.5,1.8,18.6c0.6,0.6,41.9,23.9,42.1,23.8
			c0.4-0.4,0.3-48.4-0.1-48.8c-0.2-0.2-7.4-5.3-15.9-11.1c-9.6-6.7-15.8-11.3-16.5-12.3c-0.8-1.1-1-2.3-1-3.9c0-4.5,3.5-7.7,8-7.2
			c1.9,0.2,3.6,1.2,14.1,8.5l11.9,8.3l0.2-17c0.3-18.8,0.3-18.8,3.4-21c1.2-0.8,2.2-1.1,4.2-1.1c2.9,0,4.4,0.8,6.2,3.2
			c0.9,1.2,1,2,1.1,18.4c0,9.4,0.3,17.1,0.5,17.1c0.2,0,5.3-3.4,11.3-7.5c6-4.1,11.5-7.8,12.2-8.2c2.8-1.5,6.9-0.6,8.8,1.9
			c2.3,2.8,2.2,7.1,0,9.5c-0.6,0.6-8.1,6-16.6,11.9l-15.6,10.8v24.4c0,13.4,0.1,24.4,0.3,24.4c0.3,0,40.5-22.8,41.6-23.6
			c0.7-0.5,1-3.7,2.4-19.8c1.2-14.4,1.7-19.7,2.3-20.8c1.6-3.1,5.3-4.7,8.5-3.8c2.3,0.7,4.8,3.2,5.2,5.4c0.1,0.9-0.2,7.9-0.8,15.6
			c-0.7,7.7-1.1,14-1.1,14c0,0,6.4-3.5,14.1-7.9c14-8,14.1-8.1,17-8.1c3.2,0,4.9,0.9,6.4,3.4c1.1,1.8,1.1,5.1,0.1,7
			c-1,2-2.1,2.7-16.9,11.4c-7.2,4.2-13,7.7-12.9,7.7c0.1,0.1,5.9,2.8,12.8,6.1c7,3.3,13.2,6.5,13.9,7.2c2.6,2.4,2.9,6.8,0.7,9.7
			c-1.4,1.9-4.8,3.3-6.8,3c-0.8-0.1-9.2-4-18.8-8.5c-9.6-4.5-17.5-8.2-17.6-8.2c-0.5,0-41.6,24.4-41.6,24.6
			c0,0.3,41.2,24.6,41.8,24.6c0.1,0,8.2-3.7,17.8-8.3c19-9,19.9-9.3,23.1-7.4c2.7,1.6,3.8,3.8,3.6,6.8c-0.3,4.5-0.6,4.7-15.4,11.7
			c-7.2,3.5-13.1,6.4-13.1,6.5s6,3.8,13.3,8c7.3,4.3,13.9,8.4,14.7,9.1c4.9,4.3,1.6,12.5-5,12.5c-2.3,0-1.7,0.3-17.7-8.8
			c-7-4-13-7.2-13.1-7c-0.1,0.1,0.2,5.8,0.8,12.6c1.3,16,1.3,16.8,0,18.9c-1.2,1.9-4,3.5-6.2,3.5c-2.9,0-6.5-2.7-7.1-5.3
			c-0.1-0.6-1-9.6-1.8-20c-1.4-16.7-1.6-19.1-2.4-19.6c-1.3-0.9-41.4-23.7-41.7-23.7c-0.2,0-0.3,11-0.3,24.6v24.6l16.1,11.1
			c9.3,6.5,16.4,11.7,16.9,12.4c1.3,2.1,1.5,4.4,0.6,6.6c-1.4,3.5-4.6,5.3-8.4,4.6c-0.9-0.2-6.2-3.6-13.5-8.5l-11.9-8.2l-0.2,16.9
			c-0.2,16.1-0.3,16.9-1.2,18.2c-1.6,2.2-3.2,3.1-5.7,3.3C104.3,5120.1,103,5120,102.6,5119.9z"/>
	</g>
</g>
</svg>
